# Blender v2.78 (sub 0) OBJ File: ''
# www.blender.org
o MediumTri_Cube.005
v 0.333333 -1.000000 -0.333333
v 0.333333 1.000000 -0.333333
v -0.666667 1.000000 -0.333333
v -0.666667 -1.000000 -0.333333
v 0.333333 1.000000 0.666667
v 0.333333 -1.000000 0.666667
vn 1.0000 0.0000 0.0000
vn 0.0000 1.0000 0.0000
vn 0.0000 0.0000 -1.0000
vn 0.0000 -1.0000 0.0000
vn -0.7071 0.0000 0.7071
s off
f 2//1 6//1 1//1
f 2//2 3//2 5//2
f 3//3 1//3 4//3
f 1//4 6//4 4//4
f 6//5 3//5 4//5
f 2//1 5//1 6//1
f 3//3 2//3 1//3
f 6//5 5//5 3//5
